<?xml version="1.0" encoding="utf-8"?>
<!-- Generator: Adobe Illustrator 22.0.1, SVG Export Plug-In . SVG Version: 6.00 Build 0)  -->
<svg version="1.1" id="Capa_1" xmlns="http://www.w3.org/2000/svg" xmlns:xlink="http://www.w3.org/1999/xlink" x="0px" y="0px"
	 viewBox="0 0 512 512" style="enable-background:new 0 0 512 512;" xml:space="preserve">
<style type="text/css">
	.st0{fill:#E1E1E1;}
</style>
<g>
	<path class="st0" d="M252.1,8.9C115.2,8.9,0,116.5,0,239.7c0,43.1,13.9,85.2,39.8,121.2C34.9,415,24.4,455,5.3,474
		c-2.5,2.5-3.1,6.4-1.6,9.5c1.4,2.8,4.3,4.6,7.4,4.6c0.4,0,0.8,0,1.2-0.1c3.4-0.5,88.4-6.5,144.7-39c32,12.9,64.6,18.1,99.9,18.1
		c136.9,0,255-104.1,255-227.3C512,102.9,389,8.9,252.1,8.9z M257,446.8c-28.9,0-56.8-4.7-83.4-13.9c33.7-21.1,33.8-21.6,33.8-26.5
		c0-2.9-1.6-5.6-4.1-7.1c-3.8-2.3-8.6-2.1-11.1,1.4c-4.5,3.6-24,16.1-41.5,26.9l0,0c-36.9,22.3-86.7,31.9-114.3,37.5
		c18.2-30.4,25.6-71.4,28.5-106c0.2-2-0.4-4-1.6-5.6c-24.9-33.8-38.1-73-38.1-113.6c0-114.1,101-207.8,228.8-207.8
		s234.6,93.8,234.6,207.8S384.7,446.8,257,446.8z"/>
</g>
</svg>
