<?xml version="1.0" encoding="utf-8"?>
<!-- Generator: Adobe Illustrator 22.0.1, SVG Export Plug-In . SVG Version: 6.00 Build 0)  -->
<svg version="1.1" id="Layer_1" xmlns="http://www.w3.org/2000/svg" xmlns:xlink="http://www.w3.org/1999/xlink" x="0px" y="0px"
	 viewBox="0 0 512 512" style="enable-background:new 0 0 512 512;" xml:space="preserve">
<style type="text/css">
	.st0{fill:#E1E1E1;}
</style>
<g>
	<path class="st0" d="M247.7,506.4c3.1,3.1,7.3,4.7,11.4,4.7c4.1,0,8.2-1.6,11.4-4.7l169.9-169.9c6.3-6.3,6.3-16.5,0-22.8
		c-6.3-6.3-16.5-6.3-22.8,0L275.2,456.2V18c0-8.9-7.2-16.1-16.1-16.1S243,9.1,243,18v438.2L100.5,313.8c-6.3-6.3-16.5-6.3-22.7,0
		c-6.3,6.3-6.3,16.5,0,22.8L247.7,506.4L247.7,506.4z"/>
</g>
</svg>
