<?xml version="1.0" encoding="utf-8"?>
<!-- Generator: Adobe Illustrator 22.0.1, SVG Export Plug-In . SVG Version: 6.00 Build 0)  -->
<svg version="1.1" id="Capa_1" xmlns="http://www.w3.org/2000/svg" xmlns:xlink="http://www.w3.org/1999/xlink" x="0px" y="0px"
	 viewBox="0 0 512 512" style="enable-background:new 0 0 512 512;" xml:space="preserve">
<style type="text/css">
	.st0{fill:#E1E1E1;}
</style>
<g>
	<path class="st0" d="M470.6,72.7c-26.8-26.8-62.3-41.5-100.2-41.5S297,46,270.2,72.8l-14,14l-14.2-14.2
		c-26.8-26.8-62.5-41.7-100.4-41.7c-37.8,0-73.4,14.8-100.1,41.5C14.7,99.2-0.1,134.8,0,172.7c0,37.9,14.9,73.4,41.7,100.2
		l203.8,203.8c2.8,2.8,6.6,4.3,10.3,4.3c3.7,0,7.5-1.4,10.3-4.2l204.3-203.5C497.2,246.5,512,210.9,512,173
		C512.1,135.1,497.5,99.5,470.6,72.7z M449.8,252.6l-194,193.2L62.3,252.3c-21.3-21.3-33-49.5-33-79.6s11.6-58.3,32.9-79.5
		c21.2-21.2,49.4-32.9,79.3-32.9c30.1,0,58.4,11.7,79.7,33l24.5,24.5c5.8,5.8,15,5.8,20.7,0l24.3-24.3c21.3-21.3,49.6-33,79.6-33
		s58.2,11.7,79.5,32.9c21.3,21.3,32.9,49.5,32.9,79.6C482.8,203.1,471.1,231.3,449.8,252.6z"/>
</g>
</svg>
