<?xml version="1.0" encoding="utf-8"?>
<!-- Generator: Adobe Illustrator 22.0.1, SVG Export Plug-In . SVG Version: 6.00 Build 0)  -->
<svg version="1.1" id="Layer_1" xmlns="http://www.w3.org/2000/svg" xmlns:xlink="http://www.w3.org/1999/xlink" x="0px" y="0px"
	 viewBox="0 0 23.5 25.5" style="enable-background:new 0 0 23.5 25.5;" xml:space="preserve">
<style type="text/css">
	.st0{fill:#003082;}
	.st1{fill:#6ABD45;}
	.st2{fill:#FFFFFF;}
</style>
<path class="st0" d="M7.6,13.3c-0.2-0.2-0.5-0.2-0.7,0s-0.2,0.5,0,0.7l4.6,4.6c0.1,0.1,0.2,0.1,0.3,0.1l0,0l0,0
	c0.2,0,0.3-0.1,0.4-0.2l4.6-4.6c0.2-0.2,0.2-0.5,0-0.7s-0.5-0.2-0.7,0L12.3,17V0.6c0-0.3-0.2-0.5-0.5-0.5s-0.5,0.2-0.5,0.5v16.5
	L7.6,13.3z"/>
<path class="st1" d="M15.2,4.6c-0.3,0-0.5,0.2-0.5,0.5s0.2,0.5,0.5,0.5h6v18.1H2.6V5.5h6c0.3,0,0.5-0.2,0.5-0.5S8.9,4.5,8.6,4.5h-7
	v20H22v-20L15.2,4.6L15.2,4.6z"/>
<g>
	<circle class="st1" cx="16" cy="7.6" r="7.5"/>
	<g>
		<path class="st2" d="M17,10.8h-1.4v-4V6.1V5.5C15.2,5.8,15,5.8,15,6l-0.8,0.5l-0.6-0.8l2.2-1.8H17V10.8z"/>
	</g>
</g>
</svg>
