<?xml version="1.0" encoding="utf-8"?>
<!-- Generator: Adobe Illustrator 22.0.1, SVG Export Plug-In . SVG Version: 6.00 Build 0)  -->
<svg version="1.1" id="Layer_1" xmlns="http://www.w3.org/2000/svg" xmlns:xlink="http://www.w3.org/1999/xlink" x="0px" y="0px"
	 viewBox="0 0 23.5 25.5" style="enable-background:new 0 0 23.5 25.5;" xml:space="preserve">
<style type="text/css">
	.st0{fill:#003082;}
</style>
<g>
	<path class="st0" d="M7.6,13.3c-0.2-0.2-0.5-0.2-0.7,0c-0.2,0.2-0.2,0.5,0,0.7l4.6,4.6c0.1,0.1,0.2,0.1,0.3,0.1c0,0,0,0,0,0
		c0,0,0,0,0,0c0.2,0,0.3-0.1,0.4-0.2l4.6-4.6c0.2-0.2,0.2-0.5,0-0.7c-0.2-0.2-0.5-0.2-0.7,0l-3.8,3.8V0.6c0-0.3-0.2-0.5-0.5-0.5
		c-0.3,0-0.5,0.2-0.5,0.5v16.5L7.6,13.3z M7.6,13.3"/>
	<path class="st0" d="M15.2,4.6c-0.3,0-0.5,0.2-0.5,0.5c0,0.3,0.2,0.5,0.5,0.5h6v18.1H2.6V5.5h6c0.3,0,0.5-0.2,0.5-0.5
		c0-0.3-0.2-0.5-0.5-0.5h-7v20h20.4v-20H15.2z M15.2,4.6"/>
</g>
</svg>
