<?xml version="1.0" encoding="utf-8"?>
<!-- Generator: Adobe Illustrator 22.0.1, SVG Export Plug-In . SVG Version: 6.00 Build 0)  -->
<svg version="1.1" id="Layer_1" xmlns="http://www.w3.org/2000/svg" xmlns:xlink="http://www.w3.org/1999/xlink" x="0px" y="0px"
	 viewBox="0 0 23.5 20.8" style="enable-background:new 0 0 23.5 20.8;" xml:space="preserve">
<style type="text/css">
	.st0{fill:#003082;}
</style>
<path class="st0" d="M20.4,17.5c-1.7-1.7-3.4-3.4-5.2-5.2c0.7-1.1,1.1-2.5,1.1-3.9c0-4.1-3.4-7.5-7.5-7.5S1.3,4.3,1.3,8.4
	s3.4,7.5,7.5,7.5c1.8,0,3.4-0.6,4.7-1.7c1.7,1.7,3.4,3.4,5,5C19.7,20.4,21.5,18.6,20.4,17.5z M2.3,8.4c0-3.6,2.9-6.5,6.5-6.5
	c3.6,0,6.5,2.9,6.5,6.5s-2.9,6.5-6.5,6.5S2.3,12,2.3,8.4z"/>
</svg>
